HIERARCHY
ROOT joint_Root
{
	OFFSET 0.0 0.0 0.0
	CHANNELS 6 Xposition Yposition Zposition Zrotation Xrotation Yrotation 
	JOINT Hips
	{
		OFFSET 4.5925 91.4895 -427.239
		CHANNELS 6 Xposition Yposition Zposition Zrotation Xrotation Yrotation 
		JOINT Spine
		{
			OFFSET 15.7357 0.0 0.0
			CHANNELS 6 Xposition Yposition Zposition Zrotation Xrotation Yrotation 
			JOINT Chest
			{
				OFFSET 8.98455 -0.406207 0.0
				CHANNELS 6 Xposition Yposition Zposition Zrotation Xrotation Yrotation 
				JOINT Neck
				{
					OFFSET 16.3773 0.0 0.0
					CHANNELS 6 Xposition Yposition Zposition Zrotation Xrotation Yrotation 
					JOINT Head
					{
						OFFSET 6.45672 0.0 0.0
						CHANNELS 6 Xposition Yposition Zposition Zrotation Xrotation Yrotation 
						End Site
						{
							OFFSET 0.0 0.0 0.0
						}
					}
				}
				JOINT Shoulder_L
				{
					OFFSET 12.9942 -0.242716 4.98039
					CHANNELS 6 Xposition Yposition Zposition Zrotation Xrotation Yrotation 
					JOINT UpperArm_L
					{
						OFFSET 5.34809 0.0 0.0
						CHANNELS 6 Xposition Yposition Zposition Zrotation Xrotation Yrotation 
						JOINT LowerArm_L
						{
							OFFSET 24.3286 1.87007e-05 0.0
							CHANNELS 6 Xposition Yposition Zposition Zrotation Xrotation Yrotation 
							JOINT Hand_L
							{
								OFFSET 22.2916 0.0 0.0
								CHANNELS 6 Xposition Yposition Zposition Zrotation Xrotation Yrotation 
								End Site
								{
									OFFSET 0.0 0.0 0.0
								}
							}
						}
					}
				}
				JOINT Shoulder_R
				{
					OFFSET 12.9945 -0.242716 -4.98039
					CHANNELS 6 Xposition Yposition Zposition Zrotation Xrotation Yrotation 
					JOINT UpperArm_R
					{
						OFFSET -5.34813 0.0 0.0
						CHANNELS 6 Xposition Yposition Zposition Zrotation Xrotation Yrotation 
						JOINT LowerArm_R
						{
							OFFSET -24.3289 0.000322201 0.0
							CHANNELS 6 Xposition Yposition Zposition Zrotation Xrotation Yrotation 
							JOINT Hand_R
							{
								OFFSET -22.2915 -0.000108084 0.0
								CHANNELS 6 Xposition Yposition Zposition Zrotation Xrotation Yrotation 
								End Site
								{
									OFFSET 0.0 0.0 0.0
								}
							}
						}
					}
				}
			}
		}
		JOINT UpperLeg_L
		{
			OFFSET -2.19248 -6.46944 0.0
			CHANNELS 6 Xposition Yposition Zposition Zrotation Xrotation Yrotation 
			JOINT LowerLeg_L
			{
				OFFSET 39.0811 0.0 -1.23785e-05
				CHANNELS 6 Xposition Yposition Zposition Zrotation Xrotation Yrotation 
				JOINT Foot_L
				{
					OFFSET 40.9854 0.0 -1.26872e-05
					CHANNELS 6 Xposition Yposition Zposition Zrotation Xrotation Yrotation 
					JOINT Toes_L
					{
						OFFSET 11.7543 0.0 0.0
						CHANNELS 6 Xposition Yposition Zposition Zrotation Xrotation Yrotation 
						End Site
						{
							OFFSET 0.0 0.0 0.0
						}
					}
				}
			}
		}
		JOINT UpperLeg_R
		{
			OFFSET -2.19251 6.46944 0.0
			CHANNELS 6 Xposition Yposition Zposition Zrotation Xrotation Yrotation 
			JOINT LowerLeg_R
			{
				OFFSET -39.0811 -0.00228153 -0.0401928
				CHANNELS 6 Xposition Yposition Zposition Zrotation Xrotation Yrotation 
				JOINT Foot_R
				{
					OFFSET -40.9854 0.0 0.0
					CHANNELS 6 Xposition Yposition Zposition Zrotation Xrotation Yrotation 
					JOINT Toes_R
					{
						OFFSET -11.7543 0.0 0.0
						CHANNELS 6 Xposition Yposition Zposition Zrotation Xrotation Yrotation 
						End Site
						{
							OFFSET 0.0 0.0 0.0
						}
					}
				}
			}
		}
	}
}
MOTION
Frames:	4
Frame Time:	0.0333333
0.000000 0.000000 0.000000 0.000000 0.000000 -0.000000 140.174000 86.128000 136.121000 102.236000 -39.693000 3.997610 15.735700 0.000005 -0.000001 43.295900 82.074700 -42.321400 8.984550 -0.406207 -0.000000 3.260900 -11.562300 2.282050 16.377300 -0.000001 -0.000001 -2.870070 -15.222300 3.194670 6.456720 -0.000001 -0.000000 -4.550870 -15.470500 10.519800 12.994200 -0.242716 4.980390 -87.927800 -7.631710 -74.764000 5.348090 -0.000007 -0.000001 -49.581400 34.815200 -62.679300 24.328600 0.000019 0.000005 -0.267576 0.148880 -119.130000 22.291600 -0.000001 0.000005 7.500270 5.512050 -7.029960 12.994500 -0.242716 -4.980390 89.832500 0.501732 -71.533700 -5.348130 -0.000001 -0.000004 -68.741900 28.970000 29.682500 -24.328900 0.000322 -0.000009 -13.930800 0.762420 -93.073800 -22.291500 -0.000108 -0.000004 20.411100 5.633110 -13.570400 -2.192480 -6.469440 -0.000000 -174.605000 -16.899700 6.081140 39.081100 -0.000007 -0.000012 -0.169645 0.256144 33.517000 40.985400 -0.000006 -0.000013 -11.840100 7.216090 -62.477800 11.754300 -0.000000 0.000003 -0.158143 -0.570580 -40.760600 -2.192510 6.469440 -0.000001 -158.681000 28.569200 138.144000 -39.081100 -0.002282 -0.040193 -0.047921 0.090668 29.464900 -40.985400 0.000008 0.000006 3.018540 -4.403170 -58.201900 -11.754300 -0.000006 -0.000006 -0.031113 -0.222521 -25.692000
0.000000 0.000000 0.000000 0.000000 0.000000 -0.000000 136.780000 84.589700 141.334000 104.406000 -38.564800 5.858780 15.735700 0.000005 -0.000001 41.396000 82.559500 -40.410000 8.984550 -0.406207 -0.000000 2.212350 -11.203100 2.191800 16.377300 -0.000001 -0.000001 -3.048230 -16.429200 2.526300 6.456720 -0.000001 -0.000000 -3.196370 -16.390700 8.473640 12.994200 -0.242716 4.980390 -89.448400 -2.479070 -77.458500 5.348090 -0.000007 -0.000001 -54.917900 42.388900 -50.395200 24.328600 0.000019 0.000005 -1.370190 0.520496 -110.825000 22.291600 -0.000001 0.000005 6.349480 5.543650 -8.412660 12.994500 -0.242716 -4.980390 88.442000 4.667160 -71.518500 -5.348130 -0.000001 -0.000004 -67.227400 25.289900 25.217700 -24.328900 0.000322 -0.000009 -18.700900 -2.563310 -82.480900 -22.291500 -0.000108 -0.000004 23.226000 5.650040 -14.986900 -2.192480 -6.469440 -0.000000 -174.425000 -17.140700 5.993710 39.081100 -0.000007 -0.000012 -0.083947 0.097969 40.593200 40.985400 -0.000006 -0.000013 -11.491300 9.258220 -55.567200 11.754300 -0.000000 0.000003 -0.357437 -0.858395 -54.991300 -2.192510 6.469440 -0.000001 -156.377000 33.431500 139.129000 -39.081100 -0.002282 -0.040193 -0.229195 0.398186 30.280500 -40.985400 0.000008 0.000006 34.299200 -3.025950 -61.001800 -11.754300 -0.000006 -0.000006 -0.020210 -0.168450 -23.455700
0.000000 0.000000 0.000000 0.000000 0.000000 -0.000000 132.874000 83.434100 145.938000 105.571000 -40.477700 8.507440 15.735700 0.000005 -0.000001 46.774400 83.251600 -45.616200 8.984550 -0.406207 -0.000000 2.191520 -9.293520 2.496220 16.377300 -0.000001 -0.000001 -2.684180 -17.043000 2.890180 6.456720 -0.000001 -0.000000 -3.074070 -17.182200 5.416270 12.994200 -0.242716 4.980390 -90.462800 1.824220 -75.773100 5.348090 -0.000007 -0.000001 -62.562700 47.218600 -35.814600 24.328600 0.000019 0.000005 -1.125480 0.111063 -95.533500 22.291600 -0.000001 0.000005 5.999120 5.564790 -9.425600 12.994500 -0.242716 -4.980390 86.562700 9.565120 -70.127800 -5.348130 -0.000001 -0.000004 -62.623100 28.260700 16.820800 -24.328900 0.000322 -0.000009 -20.163600 -5.385740 -75.660600 -22.291500 -0.000108 -0.000004 26.970100 5.653140 -15.323800 -2.192480 -6.469440 -0.000000 -172.877000 -18.711000 3.027020 39.081100 -0.000007 -0.000012 0.166217 -0.130020 51.965700 40.985400 -0.000006 -0.000013 -9.831320 8.558320 -41.379600 11.754300 -0.000000 0.000003 -0.338633 -0.836944 -53.834600 -2.192510 6.469440 -0.000001 -163.990000 24.159300 142.457000 -39.081100 -0.002282 -0.040193 -0.460353 0.520458 41.695800 -40.985400 0.000008 0.000006 28.040100 -15.188000 -65.444000 -11.754300 -0.000006 -0.000006 -0.012673 -0.122629 -21.573100
0.000000 0.000000 0.000000 0.000000 0.000000 -0.000000 129.019000 82.903900 149.154000 104.629000 -46.958700 10.990400 15.735700 0.000005 -0.000001 62.655200 83.263300 -60.786400 8.984550 -0.406207 -0.000000 4.327390 -6.235140 3.972000 16.377300 -0.000001 -0.000001 -2.258490 -15.254900 3.197810 6.456720 -0.000001 -0.000000 -4.294550 -17.199100 4.404890 12.994200 -0.242716 4.980390 -90.710200 2.360720 -73.252400 5.348090 -0.000007 -0.000001 -67.568700 46.918300 -23.585000 24.328600 0.000019 0.000005 6.495530 1.338360 -78.468100 22.291600 -0.000001 0.000005 7.284140 5.572450 -9.819580 12.994500 -0.242716 -4.980390 85.940900 11.580300 -70.531000 -5.348130 -0.000001 -0.000004 -59.206000 33.151900 6.087900 -24.328900 0.000322 -0.000009 -17.872900 -2.840010 -81.269800 -22.291500 -0.000108 -0.000004 23.019700 5.661450 -16.274400 -2.192480 -6.469440 -0.000000 -170.765000 -19.714800 -1.605740 39.081100 -0.000007 -0.000012 0.340586 -0.167292 63.839800 40.985400 -0.000006 -0.000013 -6.924650 0.878964 -27.539100 11.754300 -0.000000 0.000003 -0.009206 -0.097615 -20.553100 -2.192510 6.469440 -0.000001 -165.154000 16.206300 149.548000 -39.081100 -0.002282 -0.040193 -0.487874 0.493992 44.835100 -40.985400 0.000008 0.000006 26.604300 -19.626700 -68.466900 -11.754300 -0.000006 -0.000006 -0.014484 -0.134541 -22.061600
